<svg width="24" height="24" viewBox="0 0 24 24" fill="none" xmlns="http://www.w3.org/2000/svg">
<g clip-path="url(#clip0_1090_1746)">
<path d="M0.274969 12.6636C0.275249 12.6639 0.275484 12.6642 0.275812 12.6645L5.17444 17.5395C5.54142 17.9047 6.135 17.9033 6.5003 17.5363C6.86555 17.1693 6.86414 16.5758 6.49716 16.2105L3.20822 12.9375L23.0625 12.9375C23.5803 12.9375 24 12.5178 24 12C24 11.4822 23.5803 11.0625 23.0625 11.0625L3.20827 11.0625L6.49711 7.7895C6.86409 7.42425 6.8655 6.83068 6.50025 6.46369C6.13495 6.09661 5.54133 6.09535 5.17439 6.4605L0.275764 11.3355C0.275484 11.3358 0.275249 11.3361 0.274921 11.3364C-0.0922508 11.7029 -0.0910778 12.2984 0.274969 12.6636Z" fill="black"/>
</g>
<defs>
<clipPath id="clip0_1090_1746">
<rect width="24" height="24" fill="white" transform="matrix(-1 0 0 -1 24 24)"/>
</clipPath>
</defs>
</svg>
