<svg width="33" height="32" viewBox="0 0 33 32" fill="none" xmlns="http://www.w3.org/2000/svg">
<rect width="32.5822" height="32" rx="16" fill="#F96234"/>
<path d="M23.416 15.2568V19.7525C23.416 21.6124 21.9018 23.1242 20.041 23.1242H18.166V19.7517C18.166 18.7194 17.3245 17.8798 16.291 17.8798C15.2575 17.8798 14.416 18.7194 14.416 19.7517V23.1242H12.541C10.6803 23.1242 9.16602 21.6117 9.16602 19.7525V15.2568C9.16602 14.2312 9.62502 13.2731 10.4245 12.6294L14.1753 9.61476C15.4008 8.6289 17.1805 8.6289 18.4075 9.61476L22.1575 12.6301C22.9578 13.2739 23.4168 14.232 23.4168 15.2576L23.416 15.2568Z" fill="#FED8CC"/>
</svg>
