<svg width="20" height="20" viewBox="0 0 20 20" fill="none" xmlns="http://www.w3.org/2000/svg">
<g opacity="0.5">
<path d="M3.1778 8.07673C3.38166 6.34668 4.2096 4.75641 5.50965 3.59766C5.76722 3.36786 5.7898 2.97297 5.56031 2.7151C5.33051 2.45722 4.93562 2.43464 4.67774 2.66444C3.14698 4.02888 2.17286 5.90235 1.93543 7.94002C1.93268 7.96412 1.93115 7.98823 1.93115 8.01234V8.01875C1.93115 8.3639 2.211 8.6407 2.55615 8.6407C2.87965 8.6407 3.14576 8.39198 3.1778 8.07673Z" fill="black"/>
<path d="M18.0843 7.94505C17.8744 5.93546 16.8833 3.94077 15.3362 2.62401C15.0735 2.40032 14.6789 2.43236 14.4552 2.69512C14.2315 2.95787 14.2632 3.35246 14.5263 3.57615C15.8265 4.68184 16.6677 6.31791 16.8374 8.0125C16.8374 8.35765 17.1172 8.63749 17.4624 8.6375C17.8161 8.63751 18.1217 8.30255 18.0843 7.94505Z" fill="black"/>
<path d="M16.7777 14.3515C16.0233 13.0319 15.6248 11.5308 15.6248 10.0104C15.6248 10.0104 15.6248 8.7509 15.6248 8.75C15.6248 6.32487 13.9567 4.08843 11.6448 3.38077C11.7868 3.11695 11.8748 2.82001 11.8748 2.5C11.8748 1.46606 11.0337 0.625 9.99978 0.625C8.96584 0.625 8.12478 1.46606 8.12478 2.5C8.12478 2.82021 8.21294 3.11729 8.355 3.38123C6.0463 4.10988 4.37478 6.34106 4.37478 8.94196V10.0104C4.37478 11.5308 3.97622 13.0319 3.22152 14.3518C2.81777 15.0579 2.58524 15.7961 3.03201 16.5659C3.37105 17.1509 3.97744 17.5 4.65371 17.5H7.49978C7.49978 18.8785 8.6213 20 9.99978 20C11.3783 20 12.4998 18.8785 12.4998 17.5H15.3458C16.0221 17.5 16.6285 17.1509 16.9675 16.5659C17.3991 15.8213 17.176 15.049 16.7777 14.3515ZM9.99978 1.875C10.3443 1.875 10.6248 2.15546 10.6248 2.5C10.6248 2.84454 10.3443 3.125 9.99978 3.125C9.65524 3.125 9.37478 2.84454 9.37478 2.5C9.37478 2.15546 9.65524 1.875 9.99978 1.875ZM9.99978 18.75C9.31039 18.75 8.74978 18.1894 8.74978 17.5H11.2498C11.2498 18.1894 10.6892 18.75 9.99978 18.75ZM15.8866 15.9387C15.8323 16.0321 15.6709 16.25 15.3458 16.25H4.65371C4.32875 16.25 4.1673 16.0322 4.11296 15.9388C3.91535 15.5991 4.1383 15.2675 4.30703 14.9716C5.16915 13.4637 5.62478 11.748 5.62478 10.0104C5.62478 10.0104 5.62478 8.94253 5.62478 8.94196C5.62478 6.58143 7.55877 4.37534 9.99271 4.37531C12.351 4.37528 14.3748 6.39948 14.3748 8.75V10.0104C14.3748 11.748 14.8304 13.4637 15.6922 14.9712C15.8675 15.278 16.0894 15.587 15.8866 15.9387Z" fill="black"/>
</g>
</svg>
